<svg width="188" height="50" viewBox="0 0 188 50" fill="none" xmlns="http://www.w3.org/2000/svg">
<path d="M93.9956 12.6437L53.899 50L39.2637 2.10917L93.9956 12.6437Z" fill="#4D99D6"/>
<ellipse cx="94.7273" cy="33.897" rx="4.353" ry="4.25192" fill="#88BFEB"/>
<ellipse cx="111.867" cy="21.5314" rx="15.1738" ry="14.8214" fill="#EB9898"/>
<rect width="56.1361" height="28.0818" transform="matrix(0.940449 -0.339934 0.354279 0.93514 102.938 23.3034)" fill="#72A73E"/>
<ellipse cx="110.041" cy="40.6436" rx="2.55056" ry="2.49133" fill="#FFBD30"/>
<ellipse cx="22.7786" cy="9.03912" rx="22.7786" ry="9.03912" transform="matrix(0.97092 0.239406 -0.250219 0.968189 139.238 19.188)" fill="#8EC7F5"/>
<ellipse cx="176.368" cy="12.2097" rx="2.59389" ry="2.53366" fill="#FFBD30"/>
<ellipse cx="184.46" cy="9.19954" rx="2.59389" ry="2.53366" fill="#FFBD30"/>
<path d="M4.02588 42.0822H10.039V45.0343C10.039 45.5866 9.59133 46.0343 9.03905 46.0343H5.02588C4.47359 46.0343 4.02588 45.5866 4.02588 45.0343V42.0822Z" fill="#1D2959"/>
<path d="M41.2089 42.0822H47.222V45.0343C47.222 45.5866 46.7743 46.0343 46.222 46.0343H42.2089C41.6566 46.0343 41.2089 45.5866 41.2089 45.0343V42.0822Z" fill="#1D2959"/>
<path fill-rule="evenodd" clip-rule="evenodd" d="M28.8201 3.49767C27.6471 3.04017 26.3659 2.67304 25.4363 2.69114C24.5612 2.70819 23.3626 3.0787 22.2692 3.52448C21.6571 3.77405 21.0527 4.04925 20.4701 4.36048L20.4662 4.36256C19.7769 4.73697 18.9091 4.49124 18.5282 3.8134C18.1472 3.13545 18.3972 2.28216 19.0866 1.9075C19.2874 1.79986 19.4909 1.69708 19.6957 1.59699C20.064 1.41695 20.5809 1.17631 21.1769 0.933328C22.3199 0.467338 23.9372 0.0295369 25.3799 0.00143768C26.915 -0.0284637 28.6473 0.412716 29.8717 0.890271C30.6355 1.18821 31.3887 1.51746 32.1125 1.90084L32.1134 1.90132C32.8062 2.26972 33.0642 3.12072 32.6896 3.80208C32.3171 4.47963 31.4392 4.72838 30.7525 4.3665C30.577 4.27486 30.3989 4.18782 30.22 4.10286C29.8703 3.93684 29.3801 3.71611 28.8201 3.49767Z" fill="#8A4A38"/>
<path fill-rule="evenodd" clip-rule="evenodd" d="M19.2686 1.72617C18.6289 1.72617 18.1104 2.24473 18.1104 2.8844V3.59085C18.1104 4.12391 18.5425 4.55604 19.0755 4.55604H19.1016V8.20736H20.1123V4.52993H19.8629C20.5143 4.40313 21.0059 3.82953 21.0059 3.14111C21.0059 2.35966 20.3724 1.72617 19.591 1.72617H19.2686Z" fill="#F6EF3E"/>
<path fill-rule="evenodd" clip-rule="evenodd" d="M31.943 1.72617C32.5826 1.72617 33.1012 2.24473 33.1012 2.8844V3.59085C33.1012 4.12391 32.6691 4.55604 32.136 4.55604H32.1099V8.20736H31.0993V4.52993H31.3486C30.6973 4.40313 30.2056 3.82953 30.2056 3.14111C30.2056 2.35966 30.8391 1.72617 31.6206 1.72617H31.943Z" fill="#F6EF3E"/>
<path d="M0 16.7622C0 11.7917 4.02944 7.76221 9 7.76221H42.2528C47.2234 7.76221 51.2529 11.7917 51.2529 16.7622V42.0822H0V16.7622Z" fill="#8A4A38"/>
<ellipse cx="8.05304" cy="33.2472" rx="5.02106" ry="4.906" fill="#EF9A9A"/>
<ellipse cx="4.80899" cy="9.25664" rx="4.80899" ry="9.25664" transform="matrix(0.705106 -0.709101 0.725463 0.688261 29.3711 30.4553)" fill="#93C6EB"/>
<rect width="16.3937" height="9.13786" transform="matrix(0.693232 -0.720714 0.73677 0.676144 19.7539 21.3155)" fill="#C2DEA3"/>
<rect width="8.33473" height="6.24579" rx="1" transform="matrix(0.737932 0.674875 -0.691988 0.721909 10.5842 13.2612)" fill="#C49A6C"/>
<rect x="10.0394" y="23.0503" width="7.06842" height="19.9995" fill="#F57B20"/>
<path d="M10.0394 6.46931H17.1078V23.7643C17.1078 25.7061 15.5153 27.2802 13.5736 27.2802C11.6318 27.2802 10.0394 25.7061 10.0394 23.7643V6.46931Z" fill="#F6A725"/>
<rect x="9.05957" y="21.4786" width="9.03459" height="1.96354" fill="#F6EF3E"/>
<rect x="34.1519" y="23.0503" width="7.06842" height="19.9995" fill="#F57B20"/>
<path d="M34.1519 6.46931H41.2203V23.7643C41.2203 25.7061 39.6279 27.2802 37.6861 27.2802C35.7444 27.2802 34.1519 25.7061 34.1519 23.7643V6.46931Z" fill="#F6A725"/>
<rect x="33.1721" y="21.4786" width="9.03459" height="1.96354" fill="#F6EF3E"/>
</svg>
