<svg width="20" height="20" viewBox="0 0 20 20" fill="none" xmlns="http://www.w3.org/2000/svg">
  <path 
    d="M10 17.5917C8.125 15.3204 6.4025 13.6215 5.0175 12.2561C4.48625 11.7335 4.005 11.2583 3.585 10.8211C1.9425 9.10903 1.25 7.9865 1.25 6.39658C1.25 4.30381 2.905 2.5629 5 2.5629C5.97 2.5629 6.7725 3.01585 7.4425 3.68149C8.12375 4.35764 8.605 5.19396 8.8825 5.77557L10 8.12436L11.1175 5.77557C11.395 5.19396 11.8762 4.35764 12.5575 3.68149C13.2275 3.01585 14.03 2.5629 15 2.5629C17.095 2.5629 18.75 4.30381 18.75 6.39658C18.75 7.9865 18.0575 9.10903 16.415 10.8211C15.9937 11.2596 15.5138 11.7335 14.9825 12.2561C13.5975 13.6215 11.875 15.3204 10 17.5917Z" 
    fill="none" 
    stroke="currentColor"
    stroke-width="1.5"
  />
</svg>
