<svg width="62" height="62" viewBox="0 0 62 62" fill="none" xmlns="http://www.w3.org/2000/svg">
    <path d="M44.26 18.6866C43.9725 18.4483 43.6259 18.2922 43.2569 18.2349C42.8879 18.1777 42.5102 18.2213 42.164 18.3612L18.2747 28.0052C17.8886 28.1639 17.56 28.4362 17.3323 28.786C17.1047 29.1358 16.9888 29.5466 17.0001 29.9638C17.0114 30.381 17.1493 30.7849 17.3955 31.1219C17.6417 31.4589 17.9846 31.713 18.3787 31.8506L23.5333 33.6399L26.3267 42.8746C26.332 42.8932 26.3493 42.9052 26.3573 42.9226C26.3861 42.9963 26.4281 43.064 26.4813 43.1226C26.5622 43.2128 26.6665 43.2789 26.7827 43.3132C26.796 43.3186 26.8053 43.3306 26.8187 43.3332H26.8267L26.8307 43.3346C26.9338 43.3568 27.041 43.3513 27.1413 43.3186C27.152 43.3159 27.1627 43.3159 27.1747 43.3119C27.271 43.2781 27.3582 43.2224 27.4293 43.1492C27.4373 43.1399 27.4507 43.1386 27.4587 43.1306L31.476 38.6959L37.3387 43.2359C37.6947 43.5146 38.1333 43.6652 38.5853 43.6652C39.564 43.6652 40.408 42.9799 40.6093 42.0239L44.9587 20.6666C45.0324 20.304 45.0064 19.9282 44.8834 19.5793C44.7603 19.2303 44.5449 18.9213 44.26 18.6852V18.6866ZM27.784 35.3932L26.8413 39.9759L24.8747 33.4719L34.628 28.3919L27.9653 35.0559C27.8731 35.1481 27.81 35.2654 27.784 35.3932ZM39.3027 41.7559C39.2776 41.8768 39.2219 41.9893 39.1409 42.0824C39.0599 42.1756 38.9563 42.2463 38.84 42.2879C38.7266 42.3316 38.6037 42.3449 38.4836 42.3267C38.3634 42.3085 38.25 42.2593 38.1547 42.1839L31.804 37.2652C31.6713 37.1628 31.5047 37.1141 31.3377 37.1289C31.1706 37.1437 31.0153 37.221 30.9027 37.3452L28.1067 40.4266L29.048 35.8572L38.6333 26.2706C38.7456 26.158 38.8139 26.0089 38.8259 25.8504C38.8379 25.6918 38.7929 25.5342 38.6989 25.4059C38.6049 25.2776 38.4682 25.1872 38.3134 25.1509C38.1586 25.1146 37.9959 25.1348 37.8547 25.2079L24.0373 32.4052L18.8147 30.5892C18.6762 30.5435 18.5554 30.4558 18.4692 30.3382C18.3829 30.2206 18.3354 30.0791 18.3333 29.9332C18.3267 29.7861 18.366 29.6406 18.4458 29.5168C18.5256 29.3931 18.6419 29.2972 18.7787 29.2426L42.664 19.5986C42.7864 19.5466 42.9209 19.5298 43.0523 19.55C43.1838 19.5703 43.3069 19.6268 43.408 19.7132C43.5085 19.7946 43.5844 19.9022 43.6273 20.0242C43.6701 20.1461 43.6782 20.2776 43.6507 20.4039L39.3027 41.7572V41.7559Z"
          fill="currentColor"/>
</svg>
