<svg width="19" height="21" viewBox="0 0 19 21" fill="none" xmlns="http://www.w3.org/2000/svg">
<path d="M17.5347 0.180422C16.7301 0.36085 15.9218 0.542124 15.6212 1.03885L13.2941 5.4124L0.79919 8.21454L0.292949 9.61197L9.85436 10.4648L8.23212 14.251L4.60602 15.0642L3.69562 16.5523L6.31158 16.8202L6.60988 18.0372C6.74352 18.4686 7.21259 18.7566 7.61297 18.6668L8.82168 18.3958L10.2228 20.6493L11.1332 19.1613L10.2383 15.5103L12.8637 12.3537L17.8731 20.6469L18.8832 19.5657L15.8005 6.98882L18.6314 2.93156C18.9358 2.43399 18.7373 1.62393 18.5378 0.810059C18.439 0.406928 17.9351 0.0906316 17.5347 0.180422Z" fill="#1D2E5B"/>
</svg>
